<svg id="visual" viewBox="0 0 900 600" width="900" height="600" xmlns="http://www.w3.org/2000/svg" xmlns:xlink="http://www.w3.org/1999/xlink" version="1.1"><rect x="0" y="0" width="900" height="600" fill="#282c34"></rect><path d="M0 366L10 372C20 378 40 390 60 387.3C80 384.7 100 367.3 120 362.7C140 358 160 366 180 375.3C200 384.7 220 395.3 240 393.3C260 391.3 280 376.7 300 374C320 371.3 340 380.7 360 386C380 391.3 400 392.7 420 391.7C440 390.7 460 387.3 480 381.8C500 376.3 520 368.7 540 366.3C560 364 580 367 600 367.2C620 367.3 640 364.7 660 370.5C680 376.3 700 390.7 720 395.5C740 400.3 760 395.7 780 395.3C800 395 820 399 840 393.7C860 388.3 880 373.7 890 366.3L900 359L900 601L890 601C880 601 860 601 840 601C820 601 800 601 780 601C760 601 740 601 720 601C700 601 680 601 660 601C640 601 620 601 600 601C580 601 560 601 540 601C520 601 500 601 480 601C460 601 440 601 420 601C400 601 380 601 360 601C340 601 320 601 300 601C280 601 260 601 240 601C220 601 200 601 180 601C160 601 140 601 120 601C100 601 80 601 60 601C40 601 20 601 10 601L0 601Z" fill="#fa7268"></path><path d="M0 393L10 396.7C20 400.3 40 407.7 60 408.8C80 410 100 405 120 403C140 401 160 402 180 404.2C200 406.3 220 409.7 240 415.5C260 421.3 280 429.7 300 429.2C320 428.7 340 419.3 360 415.8C380 412.3 400 414.7 420 418.2C440 421.7 460 426.3 480 431.2C500 436 520 441 540 439C560 437 580 428 600 424.8C620 421.7 640 424.3 660 420.5C680 416.7 700 406.3 720 402.8C740 399.3 760 402.7 780 402.7C800 402.7 820 399.3 840 399C860 398.7 880 401.3 890 402.7L900 404L900 601L890 601C880 601 860 601 840 601C820 601 800 601 780 601C760 601 740 601 720 601C700 601 680 601 660 601C640 601 620 601 600 601C580 601 560 601 540 601C520 601 500 601 480 601C460 601 440 601 420 601C400 601 380 601 360 601C340 601 320 601 300 601C280 601 260 601 240 601C220 601 200 601 180 601C160 601 140 601 120 601C100 601 80 601 60 601C40 601 20 601 10 601L0 601Z" fill="#ef5f67"></path><path d="M0 460L10 461.3C20 462.7 40 465.3 60 468.5C80 471.7 100 475.3 120 477.7C140 480 160 481 180 480.8C200 480.7 220 479.3 240 473.8C260 468.3 280 458.7 300 460.5C320 462.3 340 475.7 360 475.5C380 475.3 400 461.7 420 460.7C440 459.7 460 471.3 480 473.2C500 475 520 467 540 461.3C560 455.7 580 452.3 600 456.5C620 460.7 640 472.3 660 476.8C680 481.3 700 478.7 720 478.3C740 478 760 480 780 474.3C800 468.7 820 455.3 840 454.3C860 453.3 880 464.7 890 470.3L900 476L900 601L890 601C880 601 860 601 840 601C820 601 800 601 780 601C760 601 740 601 720 601C700 601 680 601 660 601C640 601 620 601 600 601C580 601 560 601 540 601C520 601 500 601 480 601C460 601 440 601 420 601C400 601 380 601 360 601C340 601 320 601 300 601C280 601 260 601 240 601C220 601 200 601 180 601C160 601 140 601 120 601C100 601 80 601 60 601C40 601 20 601 10 601L0 601Z" fill="#e34c67"></path><path d="M0 497L10 501.8C20 506.7 40 516.3 60 516.8C80 517.3 100 508.7 120 502.5C140 496.3 160 492.7 180 493.7C200 494.7 220 500.3 240 504.8C260 509.3 280 512.7 300 515.3C320 518 340 520 360 516.7C380 513.3 400 504.7 420 504C440 503.3 460 510.7 480 510.7C500 510.7 520 503.3 540 504.3C560 505.3 580 514.7 600 519.3C620 524 640 524 660 524.2C680 524.3 700 524.7 720 523.3C740 522 760 519 780 514.5C800 510 820 504 840 500.2C860 496.3 880 494.7 890 493.8L900 493L900 601L890 601C880 601 860 601 840 601C820 601 800 601 780 601C760 601 740 601 720 601C700 601 680 601 660 601C640 601 620 601 600 601C580 601 560 601 540 601C520 601 500 601 480 601C460 601 440 601 420 601C400 601 380 601 360 601C340 601 320 601 300 601C280 601 260 601 240 601C220 601 200 601 180 601C160 601 140 601 120 601C100 601 80 601 60 601C40 601 20 601 10 601L0 601Z" fill="#d53867"></path><path d="M0 531L10 532.3C20 533.7 40 536.3 60 542.7C80 549 100 559 120 561.2C140 563.3 160 557.7 180 556.5C200 555.3 220 558.7 240 557.3C260 556 280 550 300 547.3C320 544.7 340 545.3 360 545C380 544.7 400 543.3 420 544.2C440 545 460 548 480 546.8C500 545.7 520 540.3 540 539.5C560 538.7 580 542.3 600 544.3C620 546.3 640 546.7 660 545.7C680 544.7 700 542.3 720 540.3C740 538.3 760 536.7 780 539C800 541.3 820 547.7 840 551.5C860 555.3 880 556.7 890 557.3L900 558L900 601L890 601C880 601 860 601 840 601C820 601 800 601 780 601C760 601 740 601 720 601C700 601 680 601 660 601C640 601 620 601 600 601C580 601 560 601 540 601C520 601 500 601 480 601C460 601 440 601 420 601C400 601 380 601 360 601C340 601 320 601 300 601C280 601 260 601 240 601C220 601 200 601 180 601C160 601 140 601 120 601C100 601 80 601 60 601C40 601 20 601 10 601L0 601Z" fill="#c62368"></path></svg>